HIERARCHY
ROOT hip
{
  OFFSET 0 0 0
  CHANNELS 6 Xposition Yposition Zposition Zrotation Yrotation Xrotation
  JOINT abdomen
  {
    OFFSET 0 20.6881 -0.73152
    CHANNELS 3 Zrotation Xrotation Yrotation
    JOINT chest
    {
      OFFSET 0 11.7043 -0.48768
      CHANNELS 3 Zrotation Xrotation Yrotation
      JOINT neck
      {
        OFFSET 0 22.1894 -2.19456
        CHANNELS 3 Zrotation Xrotation Yrotation
        JOINT head
        {
          OFFSET -0.24384 7.07133 1.2192
          CHANNELS 3 Zrotation Xrotation Yrotation
          JOINT leftEye
          {
            OFFSET 4.14528 8.04674 8.04672
            CHANNELS 3 Zrotation Xrotation Yrotation
            End Site
            {
              OFFSET 1 0 0
            }
          }
          JOINT rightEye
          {
            OFFSET -3.6576 8.04674 8.04672
            CHANNELS 3 Zrotation Xrotation Yrotation
            End Site
            {
              OFFSET 1 0 0
            }
          }
        }
      }
      JOINT rCollar
      {
        OFFSET -2.68224 19.2634 -4.8768
        CHANNELS 3 Zrotation Xrotation Yrotation
        JOINT rShldr
        {
          OFFSET -8.77824 -1.95073 1.46304
          CHANNELS 3 Zrotation Xrotation Yrotation
          JOINT rForeArm
          {
            OFFSET -28.1742 -1.7115 0.48768
            CHANNELS 3 Zrotation Xrotation Yrotation
            JOINT rHand
            {
              OFFSET -22.5879 0.773209 7.07136
              CHANNELS 3 Zrotation Xrotation Yrotation
              JOINT rThumb1
              {
                OFFSET -1.2192 -0.487915 3.41376
                CHANNELS 3 Zrotation Xrotation Yrotation
                JOINT rThumb2
                {
                  OFFSET -3.37035 -0.52449 3.41376
                  CHANNELS 3 Zrotation Xrotation Yrotation
                  End Site
                  {
                    OFFSET -1.78271 -1.18214 1.43049
                  }
                }
              }
              JOINT rIndex1
              {
                OFFSET -7.75947 0.938293 5.60832
                CHANNELS 3 Zrotation Xrotation Yrotation
                JOINT rIndex2
                {
                  OFFSET -2.54057 -0.884171 1.56538
                  CHANNELS 3 Zrotation Xrotation Yrotation
                  End Site
                  {
                    OFFSET -1.62519 -0.234802 1.16502
                  }
                }
              }
              JOINT rMid1
              {
                OFFSET -8.24714 1.18213 3.41376
                CHANNELS 3 Zrotation Xrotation Yrotation
                JOINT rMid2
                {
                  OFFSET -3.10165 -0.590103 1.0647
                  CHANNELS 3 Zrotation Xrotation Yrotation
                  End Site
                  {
                    OFFSET -2.48547 -0.328903 0.83742
                  }
                }
              }
              JOINT rRing1
              {
                OFFSET -8.82822 0.546677 1.51678
                CHANNELS 3 Zrotation Xrotation Yrotation
                JOINT rRing2
                {
                  OFFSET -2.60934 -0.819778 -0.0198488
                  CHANNELS 3 Zrotation Xrotation Yrotation
                  End Site
                  {
                    OFFSET -2.33842 -0.294052 0.168128
                  }
                }
              }
              JOINT rPinky1
              {
                OFFSET -8.27202 -0.0477905 -0.4584
                CHANNELS 3 Zrotation Xrotation Yrotation
                JOINT rPinky2
                {
                  OFFSET -1.82734 -0.647385 -0.700984
                  CHANNELS 3 Zrotation Xrotation Yrotation
                  End Site
                  {
                    OFFSET -1.69225 -0.51767 -0.607171
                  }
                }
              }
            }
          }
        }
      }
      JOINT lCollar
      {
        OFFSET 2.68224 19.2634 -4.8768
        CHANNELS 3 Zrotation Xrotation Yrotation
        JOINT lShldr
        {
          OFFSET 8.77824 -1.95073 1.46304
          CHANNELS 3 Zrotation Xrotation Yrotation
          JOINT lForeArm
          {
            OFFSET 28.1742 -1.7115 0.48768
            CHANNELS 3 Zrotation Xrotation Yrotation
            JOINT lHand
            {
              OFFSET 22.5879 0.773209 7.07136
              CHANNELS 3 Zrotation Xrotation Yrotation
              JOINT lThumb1
              {
                OFFSET 1.2192 -0.487915 3.41376
                CHANNELS 3 Zrotation Xrotation Yrotation
                JOINT lThumb2
                {
                  OFFSET 3.37035 -0.52449 3.41376
                  CHANNELS 3 Zrotation Xrotation Yrotation
                  End Site
                  {
                    OFFSET 1.78271 -1.18214 1.43049
                  }
                }
              }
              JOINT lIndex1
              {
                OFFSET 7.75947 0.938293 5.60832
                CHANNELS 3 Zrotation Xrotation Yrotation
                JOINT lIndex2
                {
                  OFFSET 2.54057 -0.884171 1.56538
                  CHANNELS 3 Zrotation Xrotation Yrotation
                  End Site
                  {
                    OFFSET 1.62519 -0.234802 1.16502
                  }
                }
              }
              JOINT lMid1
              {
                OFFSET 8.24714 1.18213 3.41376
                CHANNELS 3 Zrotation Xrotation Yrotation
                JOINT lMid2
                {
                  OFFSET 3.10165 -0.590103 1.0647
                  CHANNELS 3 Zrotation Xrotation Yrotation
                  End Site
                  {
                    OFFSET 2.48547 -0.328903 0.83742
                  }
                }
              }
              JOINT lRing1
              {
                OFFSET 8.82822 0.546677 1.51678
                CHANNELS 3 Zrotation Xrotation Yrotation
                JOINT lRing2
                {
                  OFFSET 2.60934 -0.819778 -0.0198488
                  CHANNELS 3 Zrotation Xrotation Yrotation
                  End Site
                  {
                    OFFSET 2.33842 -0.294052 0.168128
                  }
                }
              }
              JOINT lPinky1
              {
                OFFSET 8.27202 -0.0477905 -0.4584
                CHANNELS 3 Zrotation Xrotation Yrotation
                JOINT lPinky2
                {
                  OFFSET 1.82734 -0.647385 -0.700984
                  CHANNELS 3 Zrotation Xrotation Yrotation
                  End Site
                  {
                    OFFSET 1.69225 -0.51767 -0.607171
                  }
                }
              }
            }
          }
        }
      }
    }
  }
  JOINT rButtock
  {
    OFFSET -8.77824 4.35084 1.2192
    CHANNELS 3 Zrotation Xrotation Yrotation
    JOINT rThigh
    {
      OFFSET 0 -1.70687 -2.19456
      CHANNELS 3 Zrotation Xrotation Yrotation
      JOINT rShin
      {
        OFFSET 0 -36.8199 0.73152
        CHANNELS 3 Zrotation Xrotation Yrotation
        JOINT rFoot
        {
          OFFSET 0.73152 -45.1104 -5.12064
          CHANNELS 3 Zrotation Xrotation Yrotation
          End Site
          {
            OFFSET -1.1221 -3.69964 12.103
          }
        }
      }
    }
  }
  JOINT lButtock
  {
    OFFSET 8.77824 4.35084 1.2192
    CHANNELS 3 Zrotation Xrotation Yrotation
    JOINT lThigh
    {
      OFFSET 0 -1.70687 -2.19456
      CHANNELS 3 Zrotation Xrotation Yrotation
      JOINT lShin
      {
        OFFSET 0 -36.8199 0.73152
        CHANNELS 3 Zrotation Xrotation Yrotation
        JOINT lFoot
        {
          OFFSET -0.73152 -45.1104 -5.12064
          CHANNELS 3 Zrotation Xrotation Yrotation
          End Site
          {
            OFFSET 1.1221 -3.69964 12.103
          }
        }
      }
    }
  }
}
MOTION
Frames:	7
Frame Time:	0.00833333
-35.6145 80.16109999999999 36.0997 -3.349918 27.628928 7.113673 -0.980616 -7.963454 -171.082283 0.985837 8.242021 -176.014581 4.271049 27.914446 90.827634 -47.92762 -22.390811 -131.776706 -0.000668 0.0 -0.000276 -0.000668 0.0 -0.000276 0.023044 -0.13865 -0.030847 123.634997 -34.160026 154.224605 -99.189806 -19.111905 82.199129 73.649106 -72.258209 57.872648 -164.698695 -2.371885 89.585048 -146.164375 3.514301 73.310868 -28.901605 31.615823 21.338353 11.183371 -5.14356 -2.106158 -160.672755 -6.668317 143.243693 9.982692 -20.331141 -1.136913 -145.100043 -1.520848 -178.649635 6.697865 76.998913 5.366575 -25.537534 -38.087131 -24.599455 12.947755 32.167767 6.825013 149.850938 22.601524 -154.913268 74.236893 21.794141 -28.068303 -0.768541 6.809364 139.146314 -152.680439 -40.327565 -136.867604 176.928006 -14.53232 -89.658751 -69.342614 -71.266012 -52.914248 -88.791202 -75.50048 -40.048738 165.252198 -29.932026 -114.411682 39.28674 53.366878 -32.877237 163.092958 -4.757974 -143.249585 -0.000294 -0.018331 0.006859 -10.799781 -7.444113 0.971246 26.566175 -38.859052 25.609177 147.00302 12.959597 143.67932 179.997713 75.749969 0.001565 -166.719668 51.619704 0.0 7.724763 34.542152 28.935042 5.179887 -21.561396 -46.947716 -0.004485 0.000607 -0.004485 -0.440743 -43.247496 -0.643264 66.644071 66.395157 87.59646 -174.917315 12.004813 141.49806
-33.955200000000005 80.92399999999999 36.0162 -3.019971 19.993916 7.424736 -1.856975 -3.470323 -0.189704 1.512984 -14.160319 13.606137 -17.410854 30.12902 -73.893899 59.089852 28.83222 26.505137 0.002032 -0.0 -0.00212 0.002032 -0.0 -0.00212 4.260769 -46.008911 -8.909631 -90.807415 28.149156 77.156688 8.914894 16.362035 -125.192852 172.737169 -15.093967 143.72183 116.309195 -50.009567 56.953638 -39.286264 2.626694 -6.563329 -95.099602 39.751248 80.124779 -39.865179 46.744435 23.246764 -173.037887 -44.087857 144.930115 -34.851869 54.927591 29.40485 -0.014483 -1.323106 -0.416178 -155.293308 -0.944107 171.96117 12.252227 41.42493 10.280823 -81.149737 -54.230545 -80.013638 59.8319 -86.721412 81.632523 170.764612 7.431871 120.096265 13.940265 -52.602403 -93.46617 4.843311 31.138929 -2.659388 -1.188032 -1.175134 0.170554 126.257331 -19.237324 -112.972142 140.164365 2.326723 -115.878681 -1.971329 13.775853 6.60871 167.372976 -28.008786 -145.269538 88.695484 63.711306 -80.33882 0.02261 -1.725771 0.544243 156.387431 -27.671285 -175.090858 -15.079716 52.519942 -11.938963 -14.456091 43.034576 -8.006774 -0.0 1.1e-05 0.001152 8.128473 -22.915586 -62.032553 -39.658448 4.119493 -4.866663 65.597101 -87.724587 161.84731 179.997227 75.748649 0.001897 178.223641 32.476848 -180.0 -43.22503 -66.829652 30.964118 75.893416 -59.418394 158.355496
-32.209199999999996 81.7519 35.943799999999996 -2.48011 12.240053 7.716388 -4.20621 -4.655157 59.24346 -10.073227 -10.712402 -47.297796 -14.264979 37.347759 -113.647388 38.150617 55.953766 61.983875 0.001826 -0.0 -0.000323 -0.000953 -0.0 0.001202 -13.947301 42.750471 15.784108 -47.172583 -29.268441 -19.761431 -160.154503 -48.972547 -78.431937 -4.837708 12.239752 -0.305779 -78.031368 38.689133 42.412122 44.180777 -36.990388 20.063935 -138.764997 4.488019 115.03177 -165.819182 -19.892408 118.851655 89.034414 -81.394435 59.759772 -5.220265 21.25412 4.613267 -0.017241 -1.323015 -0.416706 3.2648 45.215404 8.975956 -141.241692 0.679126 -138.262803 -25.497743 -40.285659 -27.043245 -2.186213 -15.733548 3.202287 95.078755 -3.895773 169.627343 153.875235 -32.738896 59.464169 1.652512 20.301193 -2.229336 93.743084 37.963887 -53.549033 -19.349099 -27.657505 -23.149177 50.386039 40.827318 -40.023869 -5.711701 1.341506 2.594519 36.035267 51.72366 -29.831324 -175.178673 -56.717961 -138.244266 73.624428 72.973353 -91.553633 77.330538 -82.456218 94.455169 151.764822 35.62081 147.266935 128.483561 -27.984903 125.481141 0.000248 0.000579 -0.000319 5.714688 -24.124392 -150.848474 -20.844584 -32.738132 -119.740873 -65.09852 -73.455223 -148.880505 179.997985 75.749063 0.002079 177.782051 35.022993 -166.723324 -49.660751 -44.790965 102.129756 35.899472 -5.900334 4.183761
-30.4558 82.4559 35.8953 -2.289946 4.346909 7.629949 -2.030984 -3.154826 -0.196352 3.053382 -16.192635 13.863689 5.86892 25.702999 64.479336 -28.241554 -31.89801 -112.841184 0.000501 0.0 0.005124 -0.000943 0.0 -6.7e-05 2.459739 -18.216344 -3.66935 -76.343037 38.993329 51.015135 -170.238376 -8.768609 -89.780711 -6.506815 18.893098 0.25948 -121.364316 30.328921 71.957379 -26.032732 -17.396467 28.59922 -10.285828 14.664732 6.661177 178.718755 -36.1255 105.739976 68.983471 -80.154183 40.578231 3.24273 -0.643161 0.078301 0.004404 1.854409 0.58258 9.393579 9.588691 1.210153 -26.562341 -38.861414 -25.605629 -137.055444 -13.576588 -135.292126 9.651514 34.83618 -11.199305 93.342193 -5.287819 -142.025957 -13.664098 22.013582 145.950065 -163.12157 -23.929324 -143.688478 93.743816 37.963713 -53.548412 -19.348354 -27.658022 -23.149351 -11.981422 -21.346816 5.061956 10.956767 29.554998 -10.058236 39.289054 53.365975 -32.878155 163.30636 -5.411587 -143.314423 0.000572 0.063721 -0.020633 61.445169 -86.804251 82.990712 110.055087 -41.781762 108.126733 147.109444 13.384459 142.70838 -179.986909 75.750443 -0.008957 -174.642218 53.331922 -6.668881 -0.218834 36.718283 114.738493 -159.544528 72.392002 76.630425 0.005122 0.000233 0.002561 -2.92131 -37.697003 175.229512 -54.368372 -53.012612 -123.058502 -85.799313 -38.391073 -175.418493
-28.6824 83.04599999999999 35.8385 -2.130029 -3.697834 7.389199 0.152282 -3.449378 -50.124771 13.856723 -8.927955 64.478062 -11.596485 37.378379 -114.857453 31.327294 49.523181 64.880188 -0.000467 -0.0 0.00476 -0.002139 -0.0 3e-05 4.240169 -44.742823 -8.646117 84.459773 -41.851312 95.363773 -94.112002 -19.444729 82.021458 47.309968 -65.092037 34.110925 -12.927265 12.051258 3.309703 79.708676 -73.223583 10.932081 88.791701 -75.499577 40.047533 1.898262 23.021708 0.07778 -161.518715 -9.304162 143.625872 29.955916 -60.068206 7.102386 -145.098856 -1.522249 -178.650295 12.259061 44.696997 -3.861375 -29.628771 -40.967931 -28.619464 4.002067 2.076024 0.273284 158.467399 -30.055304 -166.920944 96.453805 -56.613752 45.985707 16.979212 84.890259 121.56984 -158.00572 -34.778829 -139.686274 176.597675 -14.213441 -89.690624 176.783248 -13.105094 -95.653055 -159.638286 -69.972719 -102.392425 175.380447 -44.173383 -111.859583 160.098199 -4.901452 -142.967824 11.849381 33.637468 -9.681954 145.12057 1.974662 179.748417 -11.91519 35.793616 4.940917 44.837737 -48.032574 43.620991 -65.117429 85.213232 26.034873 0.001014 -0.000966 0.000507 1.841833 -25.262909 -180.0 5.119188 -42.352591 -2.892408 -100.785819 -8.440887 -170.812888 0.012718 -0.000236 0.009538 -3.09791 -34.236904 159.994337 -26.943803 -54.61531 -161.294732 21.842303 -64.099253 -67.759154
-26.9378 83.5741 35.7578 -2.029864 -12.025993 7.088984 -2.346694 -2.186816 25.258924 -2.934826 -18.418981 -13.503954 -11.879649 27.594989 -57.306833 45.388272 10.420752 13.129363 -0.000954 0.0 -0.002792 0.000899 0.0 0.001318 -149.905179 22.421776 154.975336 77.055226 55.075216 -41.970252 177.196798 -23.845456 49.449972 168.7882 -20.177809 143.418614 -178.519838 -16.064051 89.475615 -16.726368 -45.819395 -0.767043 -166.822928 -43.973762 122.060496 -86.127866 55.95788 70.181898 -145.28879 29.523892 132.690826 -176.647488 -42.254039 142.442757 -0.020492 -1.726228 -0.541318 10.454554 0.217429 -0.044112 -25.539039 -38.087493 -24.597802 -147.212815 13.598157 -143.834146 155.460123 -3.227813 -161.777472 -120.410032 -9.475759 -171.898185 88.658947 -36.178631 -89.51957 -39.532599 -57.047682 -29.253052 -71.831133 -48.264244 -25.791132 155.887662 -28.434418 -128.18879 46.20799 39.653441 -36.317918 -125.814973 -62.362426 -72.095506 160.938438 -7.488357 -143.366512 163.780199 -6.246735 -143.109793 0.001265 -0.060965 0.01831 -6.151341 33.723074 -5.589149 18.920423 -32.14186 18.122041 147.292426 13.541766 143.92545 -0.000839 0.000222 -0.0 0.55505 -26.270787 -178.746134 -0.822012 -31.181067 -122.969931 113.471053 -52.709515 16.831241 179.999277 75.751181 -0.0 177.373104 46.740449 1.877913 45.240947 42.671805 41.992188 150.452564 78.566722 119.304803
-25.222 84.0218 35.598200000000006 -1.900032 -20.493966 6.831688 -0.483609 -1.534206 -17.498118 9.920692 -16.461897 30.892941 9.420749 36.810382 135.245022 -37.843051 20.231778 -173.035302 0.00047 -0.0 -0.002929 -0.001019 -0.0 0.00172 -142.974178 39.431977 147.39083 58.065352 43.666721 -42.772974 -31.68983 48.371478 121.882835 -1.470562 7.207408 0.252586 -160.051608 2.212923 88.877377 -109.83399 7.683427 49.744686 -152.464943 -19.226464 121.473042 179.797861 -47.252697 113.48674 -161.153738 -8.160517 143.465446 -83.280704 63.96482 75.243938 -69.297364 72.946741 87.016908 -94.936653 82.789897 103.982397 -126.798071 -26.617925 -124.510329 -73.624092 -53.314606 -74.034312 130.419439 54.54884 -134.287075 33.112437 -12.714304 -69.709402 -58.504852 -10.067285 -169.663219 164.048172 56.869605 -140.706769 0.441963 0.435156 -0.069005 5.113292 5.953566 -4.585385 162.91766 -37.929372 -122.63075 157.254298 -11.524502 -119.333841 89.836095 60.701891 -81.262383 163.07949 -4.780845 -143.155105 145.120998 0.30978 179.226366 157.349648 45.327932 -175.555084 8.191148 -17.576005 7.728885 52.188691 -53.309815 52.594897 179.99974 75.749712 0.000546 179.577213 50.639247 0.32156 -11.185964 37.462876 -126.456353 -84.831714 43.739823 -168.872488 179.997299 75.750142 -0.0 178.296771 48.906075 1.26153 40.844439 50.319252 120.056997 -145.924108 22.278429 -177.892642
